<svg width="209" height="304" viewBox="0 0 209 304" fill="none" xmlns="http://www.w3.org/2000/svg">
<path d="M23.9465 282.672C23.1076 282.672 22.2179 282.57 21.2773 282.367C20.3622 282.138 19.4724 281.668 18.6081 280.956C17.7692 280.244 17.0447 279.164 16.4346 277.715L15.5576 275.58H5.41466L2.28788 282.52H0.305051L11.5538 257.353H13.2697L21.8112 277.715C22.2687 278.834 22.828 279.723 23.4889 280.384C24.1499 281.045 24.9125 281.427 25.7768 281.528V282.482C25.5735 282.532 25.2811 282.57 24.8998 282.596C24.5439 282.647 24.2262 282.672 23.9465 282.672ZM6.21542 273.864H14.8331L10.6387 263.912L6.21542 273.864ZM27.7391 282.52V269.555C27.7391 268.411 27.5866 267.496 27.2815 266.81C26.9765 266.098 26.252 265.742 25.108 265.742H24.7267V264.598H28.5017C29.366 264.598 30.0397 264.712 30.5227 264.941C31.0311 265.144 31.4251 265.5 31.7048 266.009C32.1623 265.602 32.7852 265.208 33.5732 264.827C34.3867 264.42 35.3654 264.217 36.5093 264.217C37.0686 264.217 37.577 264.28 38.0346 264.407C38.4922 264.534 38.8862 264.725 39.2167 264.979C39.6488 265.284 39.9666 265.653 40.1699 266.085C40.3987 266.517 40.5131 266.721 40.5131 266.695L38.5684 268.182C38.3396 267.852 37.9965 267.521 37.5389 267.191C37.1067 266.86 36.5729 266.695 35.9374 266.695C35.1239 266.695 34.4375 266.81 33.8783 267.038C33.319 267.267 32.8741 267.547 32.5437 267.877C32.5945 268.335 32.6326 268.703 32.6581 268.983C32.6835 269.263 32.6962 269.504 32.6962 269.708V282.52H27.7391ZM50.8155 282.901C48.7818 282.901 47.0786 282.482 45.7058 281.643C44.3585 280.778 43.3417 279.634 42.6553 278.211C41.9944 276.787 41.6639 275.237 41.6639 273.559C41.6639 271.856 41.9944 270.305 42.6553 268.907C43.3417 267.483 44.3585 266.352 45.7058 265.513C47.0786 264.649 48.7818 264.217 50.8155 264.217C52.2644 264.217 53.4847 264.318 54.4761 264.522C55.4929 264.725 56.2428 265.068 56.7258 265.551C57.2088 266.034 57.4884 266.682 57.5647 267.496C57.641 268.309 57.6791 269.441 57.6791 270.89H56.5352C56.4335 269.263 55.9251 268.03 55.0099 267.191C54.1202 266.352 52.9127 265.932 51.3874 265.932C50.4723 265.932 49.6715 266.212 48.9851 266.771C48.2988 267.305 47.7649 268.144 47.3836 269.288C47.0023 270.407 46.8117 271.83 46.8117 273.559C46.8117 275.237 46.9896 276.647 47.3455 277.791C47.7014 278.91 48.2225 279.761 48.9089 280.346C49.6207 280.905 50.5104 281.185 51.5781 281.185C52.9 281.185 53.9677 280.88 54.7811 280.27C55.62 279.66 56.3699 278.91 57.0309 278.02L58.2129 278.897C57.8571 279.456 57.3741 280.054 56.764 280.689C56.1793 281.299 55.4039 281.821 54.4379 282.253C53.4974 282.685 52.2899 282.901 50.8155 282.901ZM61.4958 282.52V262.31C61.4958 261.166 61.3306 260.251 61.0001 259.565C60.6951 258.853 59.9706 258.497 58.8266 258.497H58.4453V257.353H63.0211C63.9108 257.353 64.5972 257.505 65.0802 257.811C65.5886 258.116 65.9445 258.624 66.1479 259.336C66.3512 260.048 66.4529 261.039 66.4529 262.31V265.666C66.8851 265.335 67.4697 265.017 68.207 264.712C68.9696 264.382 69.783 264.217 70.6474 264.217C71.5117 264.217 72.3633 264.318 73.2022 264.522C74.0665 264.725 74.8545 265.094 75.5663 265.627C76.2781 266.136 76.8374 266.848 77.2441 267.763C77.6762 268.653 77.8923 269.796 77.8923 271.195V282.52H72.9352V271.385C72.9352 270.063 72.77 269.021 72.4395 268.259C72.1345 267.496 71.715 266.949 71.1812 266.619C70.6728 266.288 70.1135 266.123 69.5034 266.123C68.8425 266.123 68.2324 266.288 67.6731 266.619C67.1393 266.949 66.7325 267.229 66.4529 267.458V282.52H61.4958ZM103.476 283.282C100.807 283.282 98.532 282.71 96.6509 281.566C94.7697 280.422 93.3335 278.872 92.342 276.914C91.376 274.957 90.893 272.758 90.893 270.318C90.893 268.386 91.1981 266.593 91.8082 264.941C92.4437 263.263 93.3335 261.802 94.4774 260.556C95.6213 259.31 96.9559 258.344 98.4812 257.658C100.006 256.946 101.672 256.59 103.476 256.59C105.866 256.59 107.785 256.908 109.234 257.544C110.709 258.154 111.802 258.865 112.514 259.679C113.022 260.34 113.314 261.191 113.391 262.234C113.467 263.276 113.505 264.356 113.505 265.475H112.361C111.878 263.162 110.988 261.395 109.692 260.175C108.421 258.929 106.73 258.306 104.62 258.306C103.07 258.306 101.659 258.662 100.388 259.374C99.1167 260.086 98.0999 261.319 97.3373 263.073C96.6 264.801 96.2314 267.216 96.2314 270.318C96.2314 271.767 96.384 273.165 96.689 274.512C96.9941 275.859 97.4771 277.067 98.138 278.135C98.8244 279.202 99.6887 280.041 100.731 280.651C101.799 281.261 103.095 281.566 104.62 281.566C106.374 281.566 108.001 281.109 109.501 280.194C111.001 279.253 112.209 277.893 113.124 276.114L114.458 277.143C113.263 279.253 111.802 280.804 110.073 281.795C108.345 282.787 106.146 283.282 103.476 283.282ZM122.951 282.901C121.883 282.901 120.942 282.774 120.129 282.52C119.341 282.265 118.667 281.922 118.108 281.49C117.574 281.033 117.167 280.486 116.888 279.85C116.608 279.215 116.468 278.516 116.468 277.753C116.468 276.533 116.748 275.503 117.307 274.665C117.892 273.8 118.934 273.152 120.434 272.72C121.934 272.262 124.044 272.034 126.764 272.034H127.336C127.336 270.508 127.196 269.301 126.916 268.411C126.637 267.521 126.217 266.886 125.658 266.504C125.124 266.123 124.476 265.932 123.713 265.932C122.849 265.932 122.074 266.149 121.387 266.581C120.701 267.013 120.205 267.941 119.9 269.364H117.803C117.803 268.703 117.841 268.03 117.917 267.343C118.019 266.657 118.298 266.06 118.756 265.551C119.214 265.043 119.964 264.7 121.006 264.522C122.074 264.318 123.23 264.217 124.476 264.217C125.721 264.217 126.827 264.382 127.793 264.712C128.759 265.043 129.573 265.538 130.234 266.199C130.92 266.86 131.428 267.699 131.759 268.716C132.115 269.708 132.293 270.877 132.293 272.224V282.52H129.052L127.717 280.804H127.526C127.196 281.338 126.637 281.821 125.849 282.253C125.06 282.685 124.094 282.901 122.951 282.901ZM124.094 280.994C124.933 280.994 125.632 280.715 126.192 280.156C126.751 279.596 127.132 279.05 127.336 278.516V273.749H126.764C124.933 273.749 123.611 274.08 122.798 274.741C122.01 275.402 121.616 276.406 121.616 277.753C121.616 278.821 121.832 279.634 122.264 280.194C122.722 280.727 123.332 280.994 124.094 280.994ZM137.33 289.765V269.555C137.33 268.411 137.177 267.496 136.872 266.81C136.567 266.098 135.843 265.742 134.699 265.742H134.317V264.598H138.092C138.957 264.598 139.63 264.712 140.113 264.941C140.622 265.17 141.016 265.589 141.295 266.199C141.753 265.793 142.401 265.361 143.24 264.903C144.079 264.445 145.159 264.217 146.481 264.217C148.261 264.217 149.735 264.636 150.904 265.475C152.099 266.288 152.989 267.407 153.574 268.83C154.184 270.229 154.489 271.805 154.489 273.559C154.489 275.287 154.184 276.863 153.574 278.287C152.989 279.711 152.086 280.842 150.866 281.681C149.672 282.494 148.146 282.901 146.291 282.901C145.452 282.901 144.664 282.774 143.926 282.52C143.215 282.291 142.668 282.037 142.287 281.757V289.765H137.33ZM145.528 281.185C146.494 281.185 147.244 280.855 147.778 280.194C148.337 279.533 148.731 278.63 148.96 277.486C149.214 276.317 149.341 275.008 149.341 273.559C149.341 272.084 149.214 270.775 148.96 269.631C148.731 268.487 148.35 267.585 147.816 266.924C147.307 266.263 146.608 265.932 145.719 265.932C144.854 265.932 144.155 266.072 143.621 266.352C143.087 266.632 142.643 266.924 142.287 267.229V280.041C142.592 280.295 143.049 280.55 143.659 280.804C144.27 281.058 144.892 281.185 145.528 281.185ZM158.927 282.52V269.555C158.927 268.411 158.761 267.496 158.431 266.81C158.126 266.098 157.401 265.742 156.257 265.742H155.876V264.598H160.452C161.342 264.598 162.028 264.75 162.511 265.055C163.019 265.361 163.375 265.869 163.579 266.581C163.782 267.293 163.884 268.284 163.884 269.555V282.52H158.927ZM161.405 262.539C160.439 262.539 159.715 262.246 159.232 261.662C158.774 261.077 158.545 260.403 158.545 259.641C158.545 258.98 158.749 258.459 159.155 258.077C159.562 257.696 160.058 257.505 160.643 257.505C161.609 257.505 162.32 257.798 162.778 258.382C163.261 258.967 163.502 259.641 163.502 260.403C163.502 261.064 163.299 261.586 162.892 261.967C162.486 262.348 161.99 262.539 161.405 262.539ZM174.698 282.901C172.969 282.901 171.609 282.431 170.618 281.49C169.652 280.55 169.169 279.164 169.169 277.334V266.314H166.881V264.598H169.169V261.166L171.075 258.878H174.126V264.598H178.32V266.314H174.126V277.563C174.126 278.986 174.291 279.952 174.622 280.461C174.977 280.944 175.473 281.185 176.109 281.185C176.77 281.185 177.354 281.071 177.863 280.842C178.371 280.613 178.791 280.384 179.121 280.156L179.655 281.223C179.146 281.681 178.486 282.075 177.672 282.405C176.859 282.736 175.867 282.901 174.698 282.901ZM187.148 282.901C186.081 282.901 185.14 282.774 184.327 282.52C183.539 282.265 182.865 281.922 182.306 281.49C181.772 281.033 181.365 280.486 181.085 279.85C180.806 279.215 180.666 278.516 180.666 277.753C180.666 276.533 180.946 275.503 181.505 274.665C182.09 273.8 183.132 273.152 184.632 272.72C186.131 272.262 188.241 272.034 190.961 272.034H191.533C191.533 270.508 191.394 269.301 191.114 268.411C190.834 267.521 190.415 266.886 189.856 266.504C189.322 266.123 188.674 265.932 187.911 265.932C187.047 265.932 186.271 266.149 185.585 266.581C184.899 267.013 184.403 267.941 184.098 269.364H182.001C182.001 268.703 182.039 268.03 182.115 267.343C182.217 266.657 182.496 266.06 182.954 265.551C183.411 265.043 184.161 264.7 185.204 264.522C186.271 264.318 187.428 264.217 188.674 264.217C189.919 264.217 191.025 264.382 191.991 264.712C192.957 265.043 193.77 265.538 194.431 266.199C195.118 266.86 195.626 267.699 195.957 268.716C196.313 269.708 196.491 270.877 196.491 272.224V282.52H193.249L191.915 280.804H191.724C191.394 281.338 190.834 281.821 190.046 282.253C189.258 282.685 188.292 282.901 187.148 282.901ZM188.292 280.994C189.131 280.994 189.83 280.715 190.389 280.156C190.949 279.596 191.33 279.05 191.533 278.516V273.749H190.961C189.131 273.749 187.809 274.08 186.996 274.741C186.208 275.402 185.814 276.406 185.814 277.753C185.814 278.821 186.03 279.634 186.462 280.194C186.92 280.727 187.53 280.994 188.292 280.994ZM200.917 282.52V262.31C200.917 261.166 200.752 260.251 200.422 259.565C200.117 258.853 199.392 258.497 198.248 258.497H197.867V257.353H202.443C203.332 257.353 204.019 257.505 204.502 257.811C205.01 258.116 205.366 258.624 205.569 259.336C205.773 260.048 205.874 261.039 205.874 262.31V282.52H200.917Z" fill="black"/>
<path d="M110.444 169.27H104.207V0.368683H110.444V169.27Z" fill="black"/>
<path d="M109.622 58.6045L105.031 54.3765L146.229 9.61804L150.823 13.8433L109.622 58.6045Z" fill="black"/>
<path d="M105.772 103.258L33.1204 61.4941L36.2311 56.0865L108.88 97.8486L105.772 103.258Z" fill="black"/>
<path d="M45.6144 111.966L41.449 107.32L72.5581 79.4402L76.7222 84.0884L45.6144 111.966Z" fill="black"/>
<path d="M177.889 63.2238L128.534 32.483L120.682 1.53484L126.728 6.267e-05L133.964 28.5131L181.188 57.9278L177.889 63.2238Z" fill="black"/>
<path d="M153.977 76.8256H147.739V42.7134H153.977V76.8256Z" fill="black"/>
<path d="M160.126 121.466L148.57 98.1104L106.085 79.6864L108.57 73.9649L153.146 93.2919L165.718 118.701L160.126 121.466Z" fill="black"/>
<path d="M64.5854 63.343L61.7061 57.8051L105.885 34.8287L108.764 40.364L64.5854 63.343Z" fill="black"/>
<path d="M83.0337 50.9417L56.6672 18.5159L61.5096 14.5792L87.8734 47.005L83.0337 50.9417Z" fill="black"/>
<path d="M152.21 98.515L149.509 92.8893L178.541 78.9539L181.24 84.577L152.21 98.515Z" fill="black"/>
<path d="M109.127 120.772L105.526 115.679L130.528 98.0069L134.127 103.099L109.127 120.772Z" fill="black"/>
<path d="M105.374 131.493L72.6875 105.269L76.5936 100.404L109.277 126.628L105.374 131.493Z" fill="black"/>
<path d="M77.5675 36.759L71.7144 34.5952L84.3516 0.428481L90.2021 2.59233L77.5675 36.759Z" fill="black"/>
<path d="M54.4013 72.6691L43.3613 31.4775L49.3874 29.8656L60.4274 71.0545L54.4013 72.6691Z" fill="black"/>
<path d="M118.942 82.4431L113.726 79.0171L130.805 53.0071L136.021 56.4304L118.942 82.4431Z" fill="black"/>
<path d="M141.461 137.953L119.009 110.22L123.858 106.291L146.31 134.027L141.461 137.953Z" fill="black"/>
<path d="M73.3019 138.664L68.7002 134.449L86.1586 115.391L90.7603 119.608L73.3019 138.664Z" fill="black"/>
<path d="M138.718 172.389H74.6392V166.151H138.718V172.389Z" fill="black"/>
<path d="M106.197 68.3632L86.9299 63.6059L88.4235 57.5492L107.693 62.3065L106.197 68.3632Z" fill="black"/>
<path d="M43.5322 86.5934C43.5322 88.9953 41.5878 90.9397 39.1859 90.9397C36.784 90.9397 34.8396 88.9953 34.8396 86.5934C34.8396 84.1915 36.784 82.2471 39.1859 82.2471C41.5878 82.2471 43.5322 84.1915 43.5322 86.5934Z" fill="black"/>
<path d="M63.4326 122.123C63.4326 124.525 61.4882 126.469 59.0863 126.469C56.6844 126.469 54.74 124.525 54.74 122.123C54.74 119.721 56.6844 117.777 59.0863 117.777C61.4882 117.777 63.4326 119.721 63.4326 122.123Z" fill="black"/>
<path d="M129.173 139.122C129.173 141.524 127.228 143.469 124.826 143.469C122.424 143.469 120.48 141.524 120.48 139.122C120.48 136.721 122.424 134.776 124.826 134.776C127.228 134.776 129.173 136.721 129.173 139.122Z" fill="black"/>
<path d="M95.3293 139.122C95.3293 141.524 93.3823 143.469 90.983 143.469C88.5811 143.469 86.6367 141.524 86.6367 139.122C86.6367 136.721 88.5811 134.776 90.983 134.776C93.3823 134.776 95.3293 136.721 95.3293 139.122Z" fill="black"/>
<path d="M95.3293 77.2324C95.3293 79.6317 93.3823 81.5787 90.983 81.5787C88.5811 81.5787 86.6367 79.6317 86.6367 77.2324C86.6367 74.8305 88.5811 72.8834 90.983 72.8834C93.3823 72.8834 95.3293 74.8305 95.3293 77.2324Z" fill="black"/>
<path d="M79.6921 67.165C79.6921 69.5643 77.7451 71.5114 75.3458 71.5114C72.9439 71.5114 70.9995 69.5643 70.9995 67.165C70.9995 64.7631 72.9439 62.8161 75.3458 62.8161C77.7451 62.8161 79.6921 64.7631 79.6921 67.165Z" fill="black"/>
<path d="M97.1511 29.1021C97.1511 31.5013 95.204 33.4484 92.8048 33.4484C90.4029 33.4484 88.4558 31.5013 88.4558 29.1021C88.4558 26.7001 90.4029 24.7531 92.8048 24.7531C95.204 24.7531 97.1511 26.7001 97.1511 29.1021Z" fill="black"/>
<path d="M180.487 71.5094C180.487 73.9113 178.543 75.8557 176.141 75.8557C173.739 75.8557 171.795 73.9113 171.795 71.5094C171.795 69.1075 173.739 67.1631 176.141 67.1631C178.543 67.1631 180.487 69.1075 180.487 71.5094Z" fill="black"/>
<path d="M148.232 111.603C148.232 114.005 146.288 115.95 143.886 115.95C141.484 115.95 139.537 114.005 139.537 111.603C139.537 109.201 141.484 107.257 143.886 107.257C146.288 107.257 148.232 109.201 148.232 111.603Z" fill="black"/>
<path d="M141.351 75.7726C141.351 78.1745 139.404 80.1189 137.002 80.1189C134.606 80.1189 132.656 78.1745 132.656 75.7726C132.656 73.3707 134.606 71.4263 137.002 71.4263C139.404 71.4263 141.351 73.3707 141.351 75.7726Z" fill="black"/>
<path d="M163.84 27.8859C163.84 30.2878 161.896 32.2322 159.494 32.2322C157.092 32.2322 155.148 30.2878 155.148 27.8859C155.148 25.484 157.092 23.5396 159.494 23.5396C161.896 23.5396 163.84 25.484 163.84 27.8859Z" fill="black"/>
<path d="M123.704 27.8859C123.704 30.2878 121.76 32.2322 119.358 32.2322C116.956 32.2322 115.011 30.2878 115.011 27.8859C115.011 25.484 116.956 23.5396 119.358 23.5396C121.76 23.5396 123.704 25.484 123.704 27.8859Z" fill="black"/>
<path d="M67.7785 42.711C67.7785 45.1129 65.8341 47.0599 63.4322 47.0599C61.033 47.0599 59.0833 45.1129 59.0833 42.711C59.0833 40.3117 61.033 38.3647 63.4322 38.3647C65.8341 38.3647 67.7785 40.3117 67.7785 42.711Z" fill="black"/>
<path d="M20.0289 209.562C20.0289 210.709 19.0536 211.686 17.8482 211.686C16.6995 211.686 15.7249 210.709 15.7249 209.562C15.7249 208.355 16.6995 207.379 17.8482 207.379C19.0536 207.379 20.0289 208.355 20.0289 209.562ZM14.6323 209.562C14.6323 210.709 13.7124 211.686 12.5077 211.686C11.3035 211.686 10.3837 210.709 10.3837 209.562C10.3837 208.355 11.3035 207.379 12.5077 207.379C13.7124 207.379 14.6323 208.355 14.6323 209.562ZM19.8581 216.968C17.6181 216.279 15.0931 216.394 13.0814 217.485C11.0715 218.575 9.69526 220.527 9.69526 223.341C9.69526 225.351 10.269 227.016 11.2443 228.277C12.1628 229.542 13.5416 230.344 15.148 230.344H19.8581V216.968ZM26.1159 215.475C24.4502 215.475 24.1634 216.509 24.1634 218.057V230.344H29.2731V231.78H15.148C12.8532 231.724 10.4991 230.862 8.6626 229.37C6.82421 227.876 5.56079 225.81 5.56079 223.282C5.56079 218.173 10.269 214.9 17.6748 214.9H26.6883V215.475H26.1159Z" fill="black"/>
<path d="M26.9702 230.345H35.8696V231.781H26.9702V230.345Z" fill="black"/>
<path d="M45.6883 237.235C45.6883 238.441 44.7105 239.417 43.5051 239.417C42.3564 239.417 41.383 238.441 41.383 237.235C41.383 236.087 42.3564 235.11 43.5051 235.11C44.7105 235.11 45.6883 236.087 45.6883 237.235ZM40.2892 237.235C40.2892 238.441 39.3706 239.417 38.1652 239.417C36.9598 239.417 36.0419 238.441 36.0419 237.235C36.0419 236.087 36.9598 235.11 38.1652 235.11C39.3706 235.11 40.2892 236.087 40.2892 237.235ZM44.9406 215.591C43.2762 215.591 42.9894 216.624 42.9894 218.173V230.345H50.6834V231.779H33.5718V230.345H38.6828V215.014H45.5143V215.591H44.9406Z" fill="black"/>
<path d="M61.3579 207.551C59.1186 207.551 58.833 208.529 58.833 210.078V223.8C58.833 226.269 58.0853 228.221 56.7658 229.597C55.4443 230.976 53.7232 231.781 51.6547 231.781H48.3821V230.345H49.3599C50.5641 230.345 51.8848 229.943 52.8034 229.025C53.7232 228.106 54.3537 226.671 54.5258 224.547V206.921H61.3579V207.551Z" fill="black"/>
<path d="M70.7144 207.495C68.475 207.495 68.1863 208.528 68.1863 210.079V230.345H73.2393V231.781H63.939V206.921H70.7144V207.495Z" fill="black"/>
<path d="M70.9407 230.345H79.8401V231.781H70.9407V230.345Z" fill="black"/>
<path d="M89.4832 218.518C88.5066 219.953 87.9317 221.505 87.9317 224.085C87.9317 227.015 88.6227 228.68 89.7121 230.345C90.8027 231.951 92.1822 232.756 93.9613 232.756C95.7404 232.756 97.1759 232.067 98.2111 230.632C99.3011 229.254 99.5867 227.761 99.5867 225.235C99.5867 222.307 99.1297 220.527 98.0365 218.919C96.9451 217.254 95.5702 216.45 93.7885 216.45C91.952 216.45 90.5159 217.14 89.4832 218.518ZM101.194 217.6C102.976 219.378 103.721 221.619 103.893 224.085V224.834C103.953 227.072 104.467 228.392 105.214 229.254C105.961 230.115 106.994 230.345 108.2 230.345H110.381V231.78H106.65C105.5 231.608 104.467 231.379 103.779 230.69C103.378 230.345 103.089 229.943 102.804 229.484C101.826 231.321 100.335 232.871 97.8089 233.733C96.4875 234.191 94.9939 234.421 93.3876 234.421C90.4005 234.421 87.8749 233.331 86.2686 231.724C85.5801 231.033 85.0632 230.287 84.659 229.542C84.1446 230.517 83.3975 231.149 82.479 231.435C81.962 231.608 81.4457 231.724 80.872 231.78H77.54V230.345H79.3204C80.4697 230.345 81.4457 230.115 82.1921 229.37C82.9379 228.622 83.3975 227.359 83.5684 225.35V224.661C83.5684 221.619 84.4302 219.378 86.4394 217.54C88.1057 215.877 90.8027 214.899 93.9613 214.899C96.9451 214.899 99.5867 215.993 101.194 217.6Z" fill="black"/>
<path d="M121.055 207.551C118.817 207.551 118.531 208.529 118.531 210.078V223.8C118.531 226.269 117.783 228.221 116.463 229.597C115.142 230.976 113.421 231.781 111.354 231.781H108.08V230.345H109.057C110.263 230.345 111.584 229.943 112.501 229.025C113.421 228.106 114.052 226.671 114.225 224.547V206.921H121.055V207.551Z" fill="black"/>
<path d="M130.412 207.495C128.174 207.495 127.942 208.528 127.942 210.079V231.781H123.635V206.921L130.412 206.978V207.495Z" fill="black"/>
<path d="M206.384 207.495C204.146 207.495 203.914 208.528 203.914 210.079V231.781H199.608V206.921L206.384 206.978V207.495Z" fill="black"/>
<path d="M193.796 215.59C192.018 215.59 191.845 216.624 191.845 218.172V223.513C191.845 226.038 190.868 228.106 189.491 229.485C188.113 230.918 186.332 231.78 184.668 231.78H181.452V230.344H182.371C183.577 230.344 184.84 230.001 185.815 229.081C186.736 228.162 187.366 226.727 187.539 224.603V215.015H194.371V215.59H193.796Z" fill="black"/>
<path d="M167.466 209.562C167.466 210.709 166.546 211.686 165.341 211.686C164.134 211.686 163.217 210.709 163.217 209.562C163.217 208.355 164.134 207.379 165.341 207.379C166.546 207.379 167.466 208.355 167.466 209.562Z" fill="black"/>
<path d="M170.163 204.68C170.163 205.828 169.187 206.806 167.981 206.806C166.834 206.806 165.859 205.828 165.859 204.68C165.859 203.474 166.834 202.5 167.981 202.5C169.187 202.5 170.163 203.474 170.163 204.68Z" fill="black"/>
<path d="M172.862 209.562C172.862 210.709 171.887 211.686 170.68 211.686C169.533 211.686 168.557 210.709 168.557 209.562C168.557 208.355 169.533 207.379 170.68 207.379C171.887 207.379 172.862 208.355 172.862 209.562Z" fill="black"/>
<path d="M154.057 234.634H153.857C153.269 235.221 152.535 235.709 151.655 236.096C150.773 236.483 149.785 236.676 148.69 236.676C144.045 236.676 141.721 234.26 141.721 229.427V222.378C141.721 221.016 141.534 220.008 141.162 219.354C140.787 218.7 140.039 218.373 138.918 218.373H138.517V217.452H142.162C143.123 217.452 143.858 217.586 144.366 217.851C144.872 218.118 145.232 218.599 145.446 219.294C145.66 219.989 145.767 221.016 145.767 222.378V229.427C145.767 231.323 146.146 232.705 146.908 233.572C147.67 234.441 148.663 234.874 149.891 234.874C151.281 234.874 152.589 234.126 153.818 232.631" fill="black"/>
<path d="M171.314 215.59C169.536 215.59 169.363 216.624 169.363 218.172V223.513C169.363 226.038 168.386 228.106 167.009 229.485C165.63 230.918 163.85 231.78 162.186 231.78H158.97V230.344H159.888C161.095 230.344 162.358 230.001 163.333 229.081C164.254 228.162 164.883 226.727 165.057 224.603V215.015H171.889V215.59H171.314Z" fill="black"/>
<path d="M160.099 215.59C158.322 215.59 158.148 216.624 158.148 218.172V228.319C158.148 230.844 157.172 232.912 155.794 234.291C154.416 235.725 152.636 236.587 150.971 236.587H147.755V235.151H148.674C149.879 235.151 151.143 234.808 152.119 233.886C153.039 232.969 153.669 231.534 153.842 229.408V215.016H160.674V215.59H160.099Z" fill="black"/>
<path d="M181.728 215.59C179.949 215.59 179.775 216.624 179.775 218.172V223.513C179.775 226.038 178.8 228.106 177.421 229.485C176.044 230.918 174.263 231.78 172.6 231.78H169.384V230.344H170.302C171.508 230.344 172.772 230.001 173.746 229.081C174.667 228.162 175.297 226.727 175.471 224.603V215.015H182.303V215.59H181.728Z" fill="black"/>
<path d="M154.965 231.78H169.384V230.308H154.965V231.78Z" fill="black"/>
<path d="M204.502 201.681C204.716 201.681 204.935 201.598 205.16 201.432C205.385 201.266 205.668 201.033 206.011 200.733L206.878 199.931L208.531 201.424L207.568 202.339C207.011 202.863 206.517 203.256 206.083 203.519C205.65 203.781 205.203 203.912 204.743 203.912C204.325 203.912 203.833 203.789 203.266 203.543L201.195 202.595C201.045 202.532 200.909 202.481 200.786 202.443C200.663 202.405 200.542 202.387 200.424 202.387C200.167 202.387 199.897 202.489 199.614 202.692C199.33 202.896 198.958 203.227 198.498 203.687L197.519 204.666L195.865 203.173L196.861 202.146C197.545 201.44 198.145 200.921 198.658 200.589C199.172 200.257 199.664 200.091 200.135 200.091C200.424 200.091 200.721 200.139 201.027 200.236C201.331 200.332 201.66 200.461 202.014 200.621L204.084 201.568C204.223 201.643 204.363 201.681 204.502 201.681Z" fill="black"/>
</svg>
