<svg width="713" height="1080" viewBox="0 0 713 1080" fill="none" xmlns="http://www.w3.org/2000/svg">
<path d="M944.97 932.741L903.312 948.533L475.699 -179.514L517.358 -195.306L944.97 932.741Z" fill="#001F19"/>
<path d="M659.312 195.717L617.945 179.103L779.781 -224.131L821.158 -207.541L659.312 195.717Z" fill="#001F19"/>
<path d="M746.641 503.69L155.684 408.698L162.77 364.706L753.705 459.697L746.641 503.69Z" fill="#001F19"/>
<path d="M366.911 714.155L327.33 693.675L464.515 428.711L504.094 449.213L366.911 714.155Z" fill="#001F19"/>
<path d="M1126.94 53.7375L719.484 -26.6185L588.689 -213.434L625.183 -238.991L745.7 -66.8806L1135.57 10.0138L1126.94 53.7375Z" fill="#001F19"/>
<path d="M1155.76 487.693L1019.45 360.964L689.061 345.474L691.168 300.972L1037.81 317.197L1186.11 455.067L1155.76 487.693Z" fill="#001F19"/>
<path d="M370.514 341.386L337.263 311.689L574.15 46.387L607.395 76.0661L370.514 341.386Z" fill="#001F19"/>
<path d="M462.327 211.856L204.139 62.0454L226.513 23.4936L484.684 173.311L462.327 211.856Z" fill="#001F19"/>
<path d="M815.47 693.279L530.773 600.888L544.544 558.506L829.224 650.904L815.47 693.279Z" fill="#001F19"/>
<path d="M389.912 130.972L345.342 131.339L343.242 -128.846L387.795 -129.206L389.912 130.972Z" fill="#001F19"/>
<path d="M326.106 429.456L148.087 182.299L184.253 156.277L362.265 403.417L326.106 429.456Z" fill="#001F19"/>
<path d="M781.901 331.335L738.39 321.659L786.608 104.704L830.112 114.362L781.901 331.335Z" fill="#001F19"/>
<path d="M619.419 822.368L578.015 805.87L646.365 634.384L687.775 650.9L619.419 822.368Z" fill="#001F19"/>
<path d="M1141.7 881.992L713.734 1044.22L697.943 1002.56L1125.91 840.333L1141.7 881.992Z" fill="#001F19"/>
<path d="M661.14 269.566L520.416 286.573L515.057 242.341L655.799 225.327L661.14 269.566Z" fill="#001F19"/>
<path d="M288.769 549.973C294.85 566.015 286.786 583.924 270.745 590.005C254.703 596.086 236.794 588.023 230.713 571.981C224.632 555.939 232.696 538.03 248.737 531.949C264.779 525.868 282.688 533.932 288.769 549.973Z" fill="#001F19"/>
<path d="M511.623 736.883C517.704 752.924 509.641 770.833 493.599 776.914C477.557 782.995 459.649 774.932 453.568 758.89C447.487 742.848 455.55 724.939 471.592 718.858C487.634 712.777 505.542 720.841 511.623 736.883Z" fill="#001F19"/>
<path d="M767.699 769.664C773.78 785.706 765.698 803.621 749.674 809.696C733.633 815.777 715.724 807.713 709.643 791.671C703.562 775.63 711.625 757.721 727.667 751.64C743.691 745.565 761.618 753.622 767.699 769.664Z" fill="#001F19"/>
<path d="M611.01 356.316C617.084 372.34 609.01 390.274 592.986 396.348C576.944 402.429 559.029 394.348 552.954 378.324C546.873 362.282 554.93 344.355 570.972 338.274C586.996 332.2 604.929 340.274 611.01 356.316Z" fill="#001F19"/>
<path d="M481.085 328.665C487.16 344.689 479.085 362.622 463.061 368.696C447.019 374.777 429.104 366.696 423.029 350.672C416.949 334.631 425.005 316.704 441.047 310.623C457.071 304.549 475.004 312.623 481.085 328.665Z" fill="#001F19"/>
<path d="M501.319 30.2507C507.393 46.2746 499.319 64.208 483.295 70.2823C467.253 76.3633 449.32 68.2888 443.245 52.2648C437.164 36.2231 445.239 18.2897 461.281 12.2087C477.305 6.13444 495.238 14.2089 501.319 30.2507Z" fill="#001F19"/>
<path d="M675.582 -45.0932C681.663 -29.0514 673.6 -11.1426 657.558 -5.06157C641.516 1.01943 623.608 -7.04403 617.527 -23.0858C611.446 -39.1275 619.509 -57.0364 635.551 -63.1174C651.593 -69.1984 669.501 -61.1349 675.582 -45.0932Z" fill="#001F19"/>
<path d="M339.603 195.508C345.684 211.55 337.627 229.476 321.586 235.557C305.562 241.632 287.611 233.564 281.53 217.522C275.455 201.498 283.548 183.558 299.572 177.484C315.613 171.403 333.529 179.484 339.603 195.508Z" fill="#001F19"/>
</svg>
