<svg width="149" height="173" viewBox="0 0 149 173" fill="none" xmlns="http://www.w3.org/2000/svg">
<path d="M77.4443 169.27H71.2068V0.368683H77.4443V169.27Z" fill="black"/>
<path d="M76.6223 58.6045L72.0312 54.3765L113.229 9.61804L117.823 13.8433L76.6223 58.6045Z" fill="black"/>
<path d="M72.7721 103.258L0.120361 61.4941L3.23114 56.0865L75.8803 97.8486L72.7721 103.258Z" fill="black"/>
<path d="M12.6144 111.966L8.44897 107.32L39.5581 79.4402L43.7222 84.0884L12.6144 111.966Z" fill="black"/>
<path d="M144.889 63.2238L95.534 32.483L87.6819 1.53484L93.7279 6.267e-05L100.964 28.5131L148.188 57.9278L144.889 63.2238Z" fill="black"/>
<path d="M120.977 76.8256H114.739V42.7134H120.977V76.8256Z" fill="black"/>
<path d="M127.126 121.466L115.57 98.1104L73.0854 79.6864L75.5698 73.9649L120.146 93.2919L132.718 118.701L127.126 121.466Z" fill="black"/>
<path d="M31.5854 63.343L28.7061 57.8051L72.8847 34.8287L75.7641 40.364L31.5854 63.343Z" fill="black"/>
<path d="M50.0337 50.9417L23.6672 18.5159L28.5096 14.5792L54.8734 47.005L50.0337 50.9417Z" fill="black"/>
<path d="M119.21 98.515L116.509 92.8893L145.541 78.9539L148.24 84.577L119.21 98.515Z" fill="black"/>
<path d="M76.1274 120.772L72.5259 115.679L97.5278 98.0069L101.127 103.099L76.1274 120.772Z" fill="black"/>
<path d="M72.374 131.493L39.6875 105.269L43.5936 100.404L76.2774 126.628L72.374 131.493Z" fill="black"/>
<path d="M44.5675 36.759L38.7144 34.5952L51.3516 0.428481L57.2021 2.59233L44.5675 36.759Z" fill="black"/>
<path d="M21.4013 72.6691L10.3613 31.4775L16.3874 29.8656L27.4274 71.0545L21.4013 72.6691Z" fill="black"/>
<path d="M85.9417 82.4431L80.7256 79.0171L97.8049 53.0071L103.021 56.4304L85.9417 82.4431Z" fill="black"/>
<path d="M108.461 137.953L86.0088 110.22L90.8578 106.291L113.31 134.027L108.461 137.953Z" fill="black"/>
<path d="M40.3019 138.664L35.7002 134.449L53.1586 115.391L57.7603 119.608L40.3019 138.664Z" fill="black"/>
<path d="M105.718 172.389H41.6392V166.151H105.718V172.389Z" fill="black"/>
<path d="M73.1971 68.3632L53.9299 63.6059L55.4235 57.5492L74.6933 62.3065L73.1971 68.3632Z" fill="black"/>
<path d="M10.5322 86.5934C10.5322 88.9953 8.58782 90.9397 6.18591 90.9397C3.784 90.9397 1.8396 88.9953 1.8396 86.5934C1.8396 84.1915 3.784 82.2471 6.18591 82.2471C8.58782 82.2471 10.5322 84.1915 10.5322 86.5934Z" fill="black"/>
<path d="M30.4326 122.123C30.4326 124.525 28.4882 126.469 26.0863 126.469C23.6844 126.469 21.74 124.525 21.74 122.123C21.74 119.721 23.6844 117.777 26.0863 117.777C28.4882 117.777 30.4326 119.721 30.4326 122.123Z" fill="black"/>
<path d="M96.1726 139.122C96.1726 141.524 94.2282 143.469 91.8263 143.469C89.4244 143.469 87.48 141.524 87.48 139.122C87.48 136.721 89.4244 134.776 91.8263 134.776C94.2282 134.776 96.1726 136.721 96.1726 139.122Z" fill="black"/>
<path d="M62.3293 139.122C62.3293 141.524 60.3823 143.469 57.983 143.469C55.5811 143.469 53.6367 141.524 53.6367 139.122C53.6367 136.721 55.5811 134.776 57.983 134.776C60.3823 134.776 62.3293 136.721 62.3293 139.122Z" fill="black"/>
<path d="M62.3293 77.2324C62.3293 79.6317 60.3823 81.5787 57.983 81.5787C55.5811 81.5787 53.6367 79.6317 53.6367 77.2324C53.6367 74.8305 55.5811 72.8834 57.983 72.8834C60.3823 72.8834 62.3293 74.8305 62.3293 77.2324Z" fill="black"/>
<path d="M46.6921 67.165C46.6921 69.5643 44.7451 71.5114 42.3458 71.5114C39.9439 71.5114 37.9995 69.5643 37.9995 67.165C37.9995 64.7631 39.9439 62.8161 42.3458 62.8161C44.7451 62.8161 46.6921 64.7631 46.6921 67.165Z" fill="black"/>
<path d="M64.1511 29.1021C64.1511 31.5013 62.204 33.4484 59.8048 33.4484C57.4029 33.4484 55.4558 31.5013 55.4558 29.1021C55.4558 26.7001 57.4029 24.7531 59.8048 24.7531C62.204 24.7531 64.1511 26.7001 64.1511 29.1021Z" fill="black"/>
<path d="M147.487 71.5094C147.487 73.9113 145.543 75.8557 143.141 75.8557C140.739 75.8557 138.795 73.9113 138.795 71.5094C138.795 69.1075 140.739 67.1631 143.141 67.1631C145.543 67.1631 147.487 69.1075 147.487 71.5094Z" fill="black"/>
<path d="M115.232 111.603C115.232 114.005 113.288 115.95 110.886 115.95C108.484 115.95 106.537 114.005 106.537 111.603C106.537 109.201 108.484 107.257 110.886 107.257C113.288 107.257 115.232 109.201 115.232 111.603Z" fill="black"/>
<path d="M108.351 75.7726C108.351 78.1745 106.404 80.1189 104.002 80.1189C101.606 80.1189 99.656 78.1745 99.656 75.7726C99.656 73.3707 101.606 71.4263 104.002 71.4263C106.404 71.4263 108.351 73.3707 108.351 75.7726Z" fill="black"/>
<path d="M130.84 27.8859C130.84 30.2878 128.896 32.2322 126.494 32.2322C124.092 32.2322 122.148 30.2878 122.148 27.8859C122.148 25.484 124.092 23.5396 126.494 23.5396C128.896 23.5396 130.84 25.484 130.84 27.8859Z" fill="black"/>
<path d="M90.7041 27.8859C90.7041 30.2878 88.7597 32.2322 86.3578 32.2322C83.9559 32.2322 82.0115 30.2878 82.0115 27.8859C82.0115 25.484 83.9559 23.5396 86.3578 23.5396C88.7597 23.5396 90.7041 25.484 90.7041 27.8859Z" fill="black"/>
<path d="M34.7785 42.711C34.7785 45.1129 32.8341 47.0599 30.4322 47.0599C28.033 47.0599 26.0833 45.1129 26.0833 42.711C26.0833 40.3117 28.033 38.3647 30.4322 38.3647C32.8341 38.3647 34.7785 40.3117 34.7785 42.711Z" fill="black"/>
</svg>
