<svg width="239" height="282" viewBox="0 0 239 282" fill="none" xmlns="http://www.w3.org/2000/svg">
<path d="M233.569 118.945V276.495H233.564H5V118.945C5 56.0146 56.1613 4.99998 119.283 4.99998C182.4 4.99998 233.564 56.0146 233.564 118.945H233.569Z" stroke="black" stroke-width="9.708" stroke-miterlimit="10"/>
<path d="M122.556 240.728H116.303V71.3982H122.556V240.728Z" fill="black"/>
<path d="M121.733 129.782L117.13 125.543L158.433 80.6711L163.038 84.9071L121.733 129.782Z" fill="black"/>
<path d="M117.872 174.548L45.0361 132.679L48.1548 127.257L120.988 169.125L117.872 174.548Z" fill="black"/>
<path d="M57.5617 183.278L53.3857 178.621L84.5737 150.67L88.7484 155.33L57.5617 183.278Z" fill="black"/>
<path d="M190.172 134.413L140.692 103.594L132.82 72.5675L138.882 71.0288L146.136 99.6142L193.48 129.104L190.172 134.413Z" fill="black"/>
<path d="M166.199 148.049H159.945V113.85H166.199V148.049Z" fill="black"/>
<path d="M172.364 192.802L160.779 169.388L118.187 150.917L120.677 145.181L165.367 164.557L177.971 190.03L172.364 192.802Z" fill="black"/>
<path d="M76.581 134.532L73.6943 128.98L117.985 105.946L120.872 111.495L76.581 134.532Z" fill="black"/>
<path d="M95.0759 122.099L68.6426 89.5914L73.4972 85.6447L99.9279 118.153L95.0759 122.099Z" fill="black"/>
<path d="M164.428 169.793L161.72 164.153L190.825 150.183L193.532 155.82L164.428 169.793Z" fill="black"/>
<path d="M121.236 192.107L117.625 187.001L142.69 169.284L146.298 174.389L121.236 192.107Z" fill="black"/>
<path d="M117.473 202.855L84.7041 176.565L88.6201 171.687L121.387 197.978L117.473 202.855Z" fill="black"/>
<path d="M89.5955 107.881L83.7275 105.712L96.3969 71.4582L102.262 73.6275L89.5955 107.881Z" fill="black"/>
<path d="M66.3717 143.882L55.3037 102.586L61.345 100.97L72.413 142.263L66.3717 143.882Z" fill="black"/>
<path d="M131.075 153.681L125.846 150.246L142.968 124.17L148.198 127.602L131.075 153.681Z" fill="black"/>
<path d="M153.652 209.332L131.143 181.528L136.004 177.589L158.513 205.396L153.652 209.332Z" fill="black"/>
<path d="M85.3194 210.044L80.7061 205.819L98.2087 186.712L102.822 190.94L85.3194 210.044Z" fill="black"/>
<path d="M150.901 243.854H86.6602V237.601H150.901V243.854Z" fill="black"/>
<path d="M118.298 139.565L98.9824 134.796L100.48 128.724L119.798 133.493L118.298 139.565Z" fill="black"/>
<path d="M55.4744 157.842C55.4744 160.25 53.5251 162.199 51.1171 162.199C48.7091 162.199 46.7598 160.25 46.7598 157.842C46.7598 155.434 48.7091 153.484 51.1171 153.484C53.5251 153.484 55.4744 155.434 55.4744 157.842Z" fill="black"/>
<path d="M75.4256 193.461C75.4256 195.869 73.4763 197.819 71.0683 197.819C68.6603 197.819 66.7109 195.869 66.7109 193.461C66.7109 191.053 68.6603 189.104 71.0683 189.104C73.4763 189.104 75.4256 191.053 75.4256 193.461Z" fill="black"/>
<path d="M141.332 210.504C141.332 212.912 139.383 214.861 136.975 214.861C134.567 214.861 132.617 212.912 132.617 210.504C132.617 208.096 134.567 206.146 136.975 206.146C139.383 206.146 141.332 208.096 141.332 210.504Z" fill="black"/>
<path d="M107.403 210.504C107.403 212.912 105.451 214.861 103.046 214.861C100.638 214.861 98.6885 212.912 98.6885 210.504C98.6885 208.096 100.638 206.146 103.046 206.146C105.451 206.146 107.403 208.096 107.403 210.504Z" fill="black"/>
<path d="M107.403 148.457C107.403 150.862 105.451 152.814 103.046 152.814C100.638 152.814 98.6885 150.862 98.6885 148.457C98.6885 146.049 100.638 144.097 103.046 144.097C105.451 144.097 107.403 146.049 107.403 148.457Z" fill="black"/>
<path d="M91.7264 138.364C91.7264 140.769 89.7744 142.721 87.3691 142.721C84.9611 142.721 83.0117 140.769 83.0117 138.364C83.0117 135.956 84.9611 134.004 87.3691 134.004C89.7744 134.004 91.7264 135.956 91.7264 138.364Z" fill="black"/>
<path d="M109.229 100.204C109.229 102.61 107.277 104.562 104.872 104.562C102.464 104.562 100.512 102.61 100.512 100.204C100.512 97.7964 102.464 95.8444 104.872 95.8444C107.277 95.8444 109.229 97.7964 109.229 100.204Z" fill="black"/>
<path d="M192.777 142.72C192.777 145.128 190.828 147.077 188.42 147.077C186.012 147.077 184.062 145.128 184.062 142.72C184.062 140.312 186.012 138.362 188.42 138.362C190.828 138.362 192.777 140.312 192.777 142.72Z" fill="black"/>
<path d="M160.44 182.915C160.44 185.323 158.491 187.272 156.083 187.272C153.675 187.272 151.723 185.323 151.723 182.915C151.723 180.507 153.675 178.558 156.083 178.558C158.491 178.558 160.44 180.507 160.44 182.915Z" fill="black"/>
<path d="M153.542 146.993C153.542 149.401 151.59 151.351 149.182 151.351C146.779 151.351 144.824 149.401 144.824 146.993C144.824 144.585 146.779 142.636 149.182 142.636C151.59 142.636 153.542 144.585 153.542 146.993Z" fill="black"/>
<path d="M176.088 98.9852C176.088 101.393 174.138 103.343 171.73 103.343C169.322 103.343 167.373 101.393 167.373 98.9852C167.373 96.5772 169.322 94.6279 171.73 94.6279C174.138 94.6279 176.088 96.5772 176.088 98.9852Z" fill="black"/>
<path d="M135.85 98.9852C135.85 101.393 133.901 103.343 131.493 103.343C129.085 103.343 127.136 101.393 127.136 98.9852C127.136 96.5772 129.085 94.6279 131.493 94.6279C133.901 94.6279 135.85 96.5772 135.85 98.9852Z" fill="black"/>
<path d="M79.7818 113.848C79.7818 116.256 77.8325 118.208 75.4245 118.208C73.0191 118.208 71.0645 116.256 71.0645 113.848C71.0645 111.442 73.0191 109.49 75.4245 109.49C77.8325 109.49 79.7818 111.442 79.7818 113.848Z" fill="black"/>
</svg>
