<svg width="2642" height="311" viewBox="0 0 2642 311" fill="none" xmlns="http://www.w3.org/2000/svg">
<g clip-path="url(#clip0_104_55)">
<mask id="mask0_104_55" style="mask-type:luminance" maskUnits="userSpaceOnUse" x="0" y="0" width="2642" height="311">
<path d="M2641.32 0.1875H0.9375V310.812H2641.32V0.1875Z" fill="white"/>
</mask>
<g mask="url(#mask0_104_55)">
<mask id="mask1_104_55" style="mask-type:luminance" maskUnits="userSpaceOnUse" x="0" y="0" width="1355" height="311">
<path d="M1354.19 0.1875H0.9375V310.812H1354.19V0.1875Z" fill="white"/>
</mask>
<g mask="url(#mask1_104_55)">
<path d="M117.595 287.744L237.104 148.326L358.039 287.994C370.586 302.487 388.811 310.813 407.981 310.813H523.37C544.565 310.813 564.474 300.643 576.896 283.471L672.666 151.078L799.929 289.468C812.439 303.072 830.075 310.813 848.556 310.813H958.807C980.002 310.813 999.911 300.643 1012.33 283.471L1106.53 153.248L1221.77 287.736C1234.32 302.383 1252.65 310.813 1271.94 310.813H1354.12V262.001H1271.94C1266.9 262.001 1262.11 259.799 1258.84 255.974L1103.29 74.4461L972.784 254.861C969.54 259.346 964.341 262.001 958.807 262.001H848.556C843.73 262.001 839.125 259.979 835.859 256.427L668.144 74.047L537.346 254.861C534.103 259.346 528.904 262.001 523.37 262.001H407.981C402.975 262.001 398.216 259.827 394.94 256.042L236.917 73.541L80.5349 255.977C77.2577 259.801 72.4735 262.001 67.438 262.001H0.9375V310.813H67.438C86.7226 310.813 105.045 302.387 117.595 287.744Z" fill="#977334"/>
<path d="M0.9375 240.001H65.2534L223.803 55.0372C230.664 47.0322 243.038 47.0014 249.94 54.972L410.151 240.001H520.944L653.727 56.4409C660.122 47.6004 673.016 46.8434 680.401 54.8747L850.641 240.001H956.381L1089 56.6676C1095.54 47.6261 1108.82 47.0801 1116.08 55.5539L1274.12 240.001H1354.12V191.188H1296.57L1153.14 23.793C1125.34 -8.65898 1074.5 -6.56808 1049.45 28.0581L931.446 191.188H872.068L716.331 21.834C688.047 -8.92394 638.669 -6.02524 614.177 27.8314L496.009 191.188H432.454L286.841 23.02C260.41 -7.50548 213.02 -7.38734 186.741 23.2695L42.8036 191.188H0.9375V240.001Z" fill="#977334"/>
</g>
<mask id="mask2_104_55" style="mask-type:luminance" maskUnits="userSpaceOnUse" x="1288" y="0" width="1354" height="311">
<path d="M2641.31 0.1875H1288.06V310.812H2641.31V0.1875Z" fill="white"/>
</mask>
<g mask="url(#mask2_104_55)">
<path d="M1404.72 287.744L1524.23 148.326L1645.16 287.994C1657.71 302.487 1675.94 310.813 1695.11 310.813H1810.49C1831.69 310.813 1851.6 300.643 1864.02 283.471L1959.79 151.078L2087.05 289.468C2099.56 303.072 2117.2 310.813 2135.68 310.813H2245.93C2267.13 310.813 2287.04 300.643 2299.46 283.471L2393.66 153.248L2508.9 287.736C2521.45 302.383 2539.77 310.813 2559.06 310.813H2641.25V262.001H2559.06C2554.03 262.001 2549.24 259.799 2545.96 255.974L2390.42 74.4461L2259.91 254.861C2256.67 259.346 2251.47 262.001 2245.93 262.001H2135.68C2130.86 262.001 2126.25 259.979 2122.98 256.427L1955.27 74.047L1824.47 254.861C1821.23 259.346 1816.03 262.001 1810.49 262.001H1695.11C1690.1 262.001 1685.34 259.827 1682.07 256.042L1524.04 73.541L1367.66 255.977C1364.38 259.801 1359.6 262.001 1354.56 262.001H1288.06V310.813H1354.56C1373.85 310.813 1392.17 302.387 1404.72 287.744Z" fill="#977334"/>
<path d="M1288.06 240.001H1352.38L1510.93 55.0372C1517.79 47.0322 1530.16 47.0014 1537.07 54.972L1697.28 240.001H1808.07L1940.85 56.4409C1947.25 47.6004 1960.14 46.8434 1967.53 54.8747L2137.77 240.001H2243.51L2376.13 56.6676C2382.67 47.6261 2395.94 47.0801 2403.2 55.5539L2561.25 240.001H2641.25V191.188H2583.7L2440.27 23.793C2412.46 -8.65898 2361.63 -6.56808 2336.58 28.0581L2218.57 191.188H2159.19L2003.46 21.834C1975.17 -8.92394 1925.79 -6.02524 1901.3 27.8314L1783.13 191.188H1719.58L1573.97 23.02C1547.53 -7.50548 1500.15 -7.38734 1473.87 23.2695L1329.93 191.188H1288.06V240.001Z" fill="#977334"/>
</g>
</g>
</g>
<defs>
<clipPath id="clip0_104_55">
<rect width="2642" height="311" fill="white"/>
</clipPath>
</defs>
</svg>
