<?xml version="1.0" encoding="utf-8"?>
<!-- Generator: Adobe Illustrator 25.4.1, SVG Export Plug-In . SVG Version: 6.00 Build 0)  -->
<svg version="1.1" id="Layer_1" xmlns="http://www.w3.org/2000/svg" xmlns:xlink="http://www.w3.org/1999/xlink" x="0px" y="0px"
	 viewBox="0 0 83.9 35.2" style="enable-background:new 0 0 83.9 35.2;" xml:space="preserve">
<style type="text/css">
	.st0{fill:#FFFFFF;}
</style>
<path class="st0" d="M25.6,16l0,18.3h-5.5l0-18.3c0-1.1-0.7-1.7-1-1.9c-0.3-0.2-1.1-0.6-2.1-0.2c-3.6,1.6-7,3.6-10.2,6
	c-0.6,0.4-0.9,1.1-0.9,1.8c0,0.4,0.1,1.2,0.9,1.7c2.8,2.1,5.9,4,9.1,5.5l-1.3,5.5c-4-1.8-7.7-4-11.2-6.6c-1.9-1.5-3.1-3.7-3.1-6.1
	c0-2.4,1.1-4.7,3.1-6.2c3.5-2.6,7.3-4.9,11.3-6.6c2.4-1.1,5.2-0.9,7.4,0.6C24.3,10.9,25.6,13.3,25.6,16z M80.6,15.3
	c-3.5-2.6-7.3-4.9-11.3-6.6l-0.1,0.2L68,14.1c3.3,1.5,6.4,3.4,9.3,5.6c0.6,0.4,0.9,1.1,0.9,1.8c0,0.4-0.1,1.2-0.9,1.7
	c-3.2,2.4-6.6,4.4-10.2,6c-1,0.5-1.8,0-2.2-0.2c-0.3-0.2-1-0.8-1-1.9l0-27h-5.5l0,27c0,2.6,1.3,5.1,3.6,6.5c1.3,0.8,2.7,1.2,4.2,1.2
	c1.1,0,2.2-0.2,3.2-0.7c4-1.8,7.8-4,11.3-6.7c1.9-1.5,3.1-3.7,3.1-6.1C83.7,19.1,82.5,16.8,80.6,15.3L80.6,15.3z M54,18.6
	c0-5.7-4.7-10.3-10.4-10.3h-8c-3,0-5.5,2.5-5.5,5.5v20.6h5.5V13.8h7.9c2.7,0,4.8,2.2,4.8,4.8v15.7H54V18.6z"/>
</svg>
