<svg id="The_Logo" xmlns="http://www.w3.org/2000/svg" viewBox="0 0 292.68 145.62"><defs><style>.cls-1{fill:#309fd2;}.cls-2{fill:#2792d0;}.cls-3{fill:#7ed1eb;}.cls-4{fill:#32aee3;}.cls-5{fill:#f1bd2a;}.cls-6{fill:#04ace3;}.cls-7{fill:#59c7e4;}.cls-8{fill:#fff;}.cls-9{fill:#e5e5e4;}.cls-10{fill:#616a87;}.cls-11{opacity:0.5;}</style></defs><title>Homoola_Logo</title><g id="Homoola_Logo"><g id="Icon"><polyline class="cls-1" points="166.55 109.2 229.6 145.62 229.61 145.62 229.61 70.39"/><polyline class="cls-2" points="229.61 70.39 166.66 36.34 166.57 36.39 166.55 109.2"/><polygon class="cls-3" points="171.59 92.79 188.32 102.62 188.33 102.62 188.33 95.56 171.69 86.06 171.61 86.11 171.59 92.79"/><polygon class="cls-4" points="171.59 104.67 188.32 114.5 194.72 118.03 194.72 110.97 171.69 97.94 171.61 97.98 171.59 104.67"/><polygon class="cls-5" points="229.62 145.61 292.67 109.23 292.68 36.51 229.62 70.38 229.62 145.61"/><polygon class="cls-6" points="254 57.13 191.25 22.15 166.66 36.34 229.61 70.39 229.62 70.38 254 57.28 254 57.13"/><polygon class="cls-7" points="229.64 0 206.28 13.48 269.45 48.98 292.68 36.51 292.68 36.42 229.64 0"/><polygon class="cls-8" points="206.28 13.48 191.25 22.15 254 57.13 254.12 83.55 269.45 74.69 269.45 48.98 206.28 13.48"/><polygon class="cls-9" points="253.59 117.26 253.47 131.85 268.85 122.97 268.95 108.9 253.59 117.26"/></g><g id="Text"><path class="cls-10" d="M173.92,225.34a8.35,8.35,0,0,1-2.18-1.17,7,7,0,0,1-1.62-1.72,10.35,10.35,0,0,1-1.08-2.11,10.43,10.43,0,0,1-2.87,2.65,7.46,7.46,0,0,1-4.13,1.15,12.5,12.5,0,0,1-3.64-.56,10.27,10.27,0,0,1-3.38-1.76,9.14,9.14,0,0,1-2.49-3.08,9.78,9.78,0,0,1-1-4.51,13.07,13.07,0,0,1,.66-4.2,9.59,9.59,0,0,1,2-3.41,9,9,0,0,1,3.34-2.28,12.4,12.4,0,0,1,4.7-.82h10.62v12.54q0,2.73,1,3.81a3.64,3.64,0,0,0,2.8,1.08H178a2.31,2.31,0,0,1,.68.09,0.51,0.51,0,0,1,.31.56v3.66q0,0.52-1,.52h-1.32A7.89,7.89,0,0,1,173.92,225.34Zm-8-7.21a5.13,5.13,0,0,0,1.6-4.13v-5.78h-5.26a5,5,0,0,0-3.74,1.6,6.13,6.13,0,0,0-1.53,4.42,5,5,0,0,0,1.46,4,5.37,5.37,0,0,0,3.62,1.24A5.74,5.74,0,0,0,165.88,218.13Z" transform="translate(-151.3 -154.96)"/><path class="cls-10" d="M185.1,192.2h5.36v33.59H178q-1,0-1-.52v-3.66a0.51,0.51,0,0,1,.31-0.56A2.31,2.31,0,0,1,178,221h7.14V192.2Z" transform="translate(-151.3 -154.96)"/><path class="cls-10" d="M201.49,236.88a11,11,0,0,1-1.36-.23q-0.66-.19-1.17-0.38v-4.65a8.81,8.81,0,0,0,3.62.75,16.66,16.66,0,0,0,3.24-.28,6.35,6.35,0,0,0,2.47-1,6,6,0,0,0,1.76-2,11.82,11.82,0,0,0,1.13-3.24h-4.84a12.5,12.5,0,0,1-4.51-.78,10.07,10.07,0,0,1-3.5-2.23,9.94,9.94,0,0,1-2.28-3.48,12.17,12.17,0,0,1-.8-4.51,18.83,18.83,0,0,1,.54-4.53,10.41,10.41,0,0,1,1.81-3.85,9,9,0,0,1,3.41-2.68,12.45,12.45,0,0,1,5.33-1,13.11,13.11,0,0,1,5.31.94,8,8,0,0,1,3.38,2.75,11.49,11.49,0,0,1,1.79,4.42,30.75,30.75,0,0,1,.52,5.94q0,2.3-.14,4.18h5.92a2.31,2.31,0,0,1,.68.09,0.51,0.51,0,0,1,.31.56v3.66q0,0.52-1,.52h-6.39a19,19,0,0,1-1.55,5.21,10.23,10.23,0,0,1-2.65,3.45,9.91,9.91,0,0,1-3.92,1.93,21.57,21.57,0,0,1-5.31.59A15.35,15.35,0,0,1,201.49,236.88Zm0.56-17.52q1.22,1.6,4.28,1.6h5.4q0.14-2,.14-4.42a28.66,28.66,0,0,0-.23-3.9,8.33,8.33,0,0,0-.85-2.82,4.24,4.24,0,0,0-1.64-1.71,5.28,5.28,0,0,0-2.63-.59,5.21,5.21,0,0,0-2.68.63,5.29,5.29,0,0,0-1.76,1.67,6.82,6.82,0,0,0-1,2.35,12.5,12.5,0,0,0-.28,2.63A7.38,7.38,0,0,0,202.05,219.35Z" transform="translate(-151.3 -154.96)"/><path class="cls-10" d="M234.54,225.88a9,9,0,0,1-4.06-4,6,6,0,0,1-2.33,2.94,6.33,6.33,0,0,1-3.45,1h-1.6q-1,0-1-.52v-3.66a0.51,0.51,0,0,1,.31-0.56,2.31,2.31,0,0,1,.68-0.09h1.55a5.47,5.47,0,0,0,1.69-.26,3.61,3.61,0,0,0,1.41-.85,4.21,4.21,0,0,0,1-1.6,7.44,7.44,0,0,0,.38-2.56,13.55,13.55,0,0,1,.87-5.07,9.85,9.85,0,0,1,2.44-3.62,10,10,0,0,1,3.71-2.16,15.85,15.85,0,0,1,9.35,0,10,10,0,0,1,3.71,2.16,9.85,9.85,0,0,1,2.44,3.62,13.56,13.56,0,0,1,.87,5.07,7.43,7.43,0,0,0,.38,2.56,4.21,4.21,0,0,0,1,1.6,3.61,3.61,0,0,0,1.41.85A5.46,5.46,0,0,0,257,221h1.55a2.31,2.31,0,0,1,.68.09,0.51,0.51,0,0,1,.31.56v3.66q0,0.52-1,.52h-1.6a6.33,6.33,0,0,1-3.45-1,6,6,0,0,1-2.33-2.94,9,9,0,0,1-4.09,4A15.56,15.56,0,0,1,234.54,225.88Zm10.85-5.22a7.5,7.5,0,0,0,1.57-5,7.67,7.67,0,0,0-1.55-5,6.52,6.52,0,0,0-9.21,0,7.67,7.67,0,0,0-1.55,5,7.5,7.5,0,0,0,1.57,5A6.52,6.52,0,0,0,245.39,220.67Z" transform="translate(-151.3 -154.96)"/><path class="cls-10" d="M272.33,207.84a9,9,0,0,0-2.42,1.2,8.25,8.25,0,0,0-1.88,1.81,5.42,5.42,0,0,0-1,2.26H261.8a9.13,9.13,0,0,1,1.32-4.28,11.57,11.57,0,0,1,3-3.29,13.88,13.88,0,0,1,4.13-2.09,15.49,15.49,0,0,1,4.7-.73,15.9,15.9,0,0,1,5.57.92,12.36,12.36,0,0,1,4.25,2.61,12.76,12.76,0,0,1,2.87,4.11,19,19,0,0,1,1.46,5.43q0.33,2.58.52,4.16t0.35,2.58q0.17,1,.31,1.71t0.38,1.55H258.52q-1,0-1-.52v-3.66a0.51,0.51,0,0,1,.31-0.56,2.31,2.31,0,0,1,.68-0.09h26q-0.1-.28-0.26-0.87T284,218.72q-0.14-.78-0.28-1.64t-0.23-1.71a10.31,10.31,0,0,0-1-3.5,8.12,8.12,0,0,0-1.88-2.47,7.57,7.57,0,0,0-2.58-1.48,9.45,9.45,0,0,0-3.05-.49A8.55,8.55,0,0,0,272.33,207.84Z" transform="translate(-151.3 -154.96)"/><g class="cls-11"><path class="cls-10" d="M178.2,263.28a6.66,6.66,0,0,1-2.59-.49,6.3,6.3,0,0,1-2.05-1.36,6.13,6.13,0,0,1-1.35-2.07,7.33,7.33,0,0,1,0-5.25,6.07,6.07,0,0,1,3.41-3.43,6.76,6.76,0,0,1,2.59-.49,6.83,6.83,0,0,1,2.6.49,6.08,6.08,0,0,1,2.05,1.35,6.22,6.22,0,0,1,1.34,2.07,7.33,7.33,0,0,1,0,5.25,6.08,6.08,0,0,1-3.4,3.44A6.73,6.73,0,0,1,178.2,263.28Zm0-3.1a3,3,0,0,0,1.3-.27,2.82,2.82,0,0,0,1-.74,3.24,3.24,0,0,0,.6-1.1,4.51,4.51,0,0,0,0-2.69,3.25,3.25,0,0,0-.6-1.1,2.83,2.83,0,0,0-1-.74,3.25,3.25,0,0,0-2.6,0,2.83,2.83,0,0,0-1,.74,3.25,3.25,0,0,0-.6,1.1,4.5,4.5,0,0,0,0,2.69,3.24,3.24,0,0,0,.6,1.1,2.82,2.82,0,0,0,1,.74A3,3,0,0,0,178.2,260.18Z" transform="translate(-151.3 -154.96)"/><path class="cls-10" d="M194.22,250.53h3.16l3,5.43,3-5.43h3.17L207.13,263h-3.34l-0.3-7.3-2.18,4.26h-1.81l-2.43-4.26-0.24,7.3h-3.17Z" transform="translate(-151.3 -154.96)"/><path class="cls-10" d="M222.57,263.28a6.66,6.66,0,0,1-2.59-.49,6.3,6.3,0,0,1-2.05-1.36,6.13,6.13,0,0,1-1.35-2.07,7.33,7.33,0,0,1,0-5.25,6.07,6.07,0,0,1,3.41-3.43,6.76,6.76,0,0,1,2.59-.49,6.83,6.83,0,0,1,2.6.49,6.08,6.08,0,0,1,2.05,1.35,6.23,6.23,0,0,1,1.34,2.07,7.33,7.33,0,0,1,0,5.25,6.08,6.08,0,0,1-3.4,3.44A6.73,6.73,0,0,1,222.57,263.28Zm0-3.1a3,3,0,0,0,1.3-.27,2.82,2.82,0,0,0,1-.74,3.24,3.24,0,0,0,.6-1.1,4.51,4.51,0,0,0,0-2.69,3.25,3.25,0,0,0-.6-1.1,2.83,2.83,0,0,0-1-.74,3.25,3.25,0,0,0-2.6,0,2.83,2.83,0,0,0-1,.74,3.25,3.25,0,0,0-.6,1.1,4.5,4.5,0,0,0,0,2.69,3.24,3.24,0,0,0,.6,1.1,2.82,2.82,0,0,0,1,.74A3,3,0,0,0,222.57,260.18Z" transform="translate(-151.3 -154.96)"/><path class="cls-10" d="M244.26,263.28a6.66,6.66,0,0,1-2.59-.49,6.3,6.3,0,0,1-2.05-1.36,6.13,6.13,0,0,1-1.35-2.07,7.33,7.33,0,0,1,0-5.25,6.07,6.07,0,0,1,3.41-3.43,6.76,6.76,0,0,1,2.59-.49,6.83,6.83,0,0,1,2.6.49,6.08,6.08,0,0,1,2.05,1.35,6.23,6.23,0,0,1,1.34,2.07,7.33,7.33,0,0,1,0,5.25,6.08,6.08,0,0,1-3.4,3.44A6.73,6.73,0,0,1,244.26,263.28Zm0-3.1a3,3,0,0,0,1.3-.27,2.82,2.82,0,0,0,1-.74,3.24,3.24,0,0,0,.6-1.1,4.51,4.51,0,0,0,0-2.69,3.25,3.25,0,0,0-.6-1.1,2.83,2.83,0,0,0-1-.74,3.25,3.25,0,0,0-2.6,0,2.83,2.83,0,0,0-1,.74,3.26,3.26,0,0,0-.6,1.1,4.5,4.5,0,0,0,0,2.69,3.24,3.24,0,0,0,.6,1.1,2.82,2.82,0,0,0,1,.74A3,3,0,0,0,244.26,260.18Z" transform="translate(-151.3 -154.96)"/><path class="cls-10" d="M260,250.53h3.3v9.54H269V263H260V250.53Z" transform="translate(-151.3 -154.96)"/><path class="cls-10" d="M281.93,250.53h3.79L290.12,263h-3.57l-0.8-2.58h-4.16L280.77,263h-3.42Zm3.16,7.47-1.38-4.58L282.26,258h2.82Z" transform="translate(-151.3 -154.96)"/><path class="cls-10" d="M151.3,250.53h3.3v4.56h4.59v-4.56h3.3V263h-3.3v-4.87H154.6V263h-3.3V250.53Z" transform="translate(-151.3 -154.96)"/></g></g></g></svg>